<svg 
  xmlns="http://www.w3.org/2000/svg" 
  viewBox="0 0 24 24" 
  width="24" 
  height="24"
  aria-hidden="true"
>
  <path 
    fill="#AAAAAA"
    d="M9.03 2.242 8.272 3H7.2A4.2 4.2 0 003 7.2v1.072l-.758.758a4.2 4.2 0 000 5.94l.758.758V16.8A4.2 4.2 0 007.2 21h1.072l.758.758a4.2 4.2 0 005.94 0l.758-.758H16.8a4.2 4.2 0 004.2-4.2v-1.072l.758-.758a4.2 4.2 0 000-5.94L21 8.272V7.2A4.2 4.2 0 0016.8 3h-1.072l-.758-.758a4.2 4.2 0 00-5.94 0Zm4.526 1.415L14.9 5h1.9A2.2 2.2 0 0119 7.2v1.9l1.345 1.345a2.2 2.2 0 010 3.111l-.76.758L19 14.9v1.9a2.2 2.2 0 01-2.2 2.2h-1.9l-.586.585-.758.76a2.2 2.2 0 01-3.111 0l-.759-.76L9.1 19H7.2A2.2 2.2 0 015 16.8v-1.9l-1.343-1.345a2.2 2.2 0 010-3.111l.757-.759L5 9.1V7.2A2.2 2.2 0 017.2 5h1.902l.583-.585.76-.758a2.2 2.2 0 013.111 0ZM12 6.888v4.286a3 3 0 101.996 2.98L14 14V9.701l2.615 1.568A.255.255 0 0017 11.05V9.308a.499.499 0 00-.24-.428l-4-2.42a.5.5 0 00-.76.428Zm-1 6.113a1 1 0 11-.001 0"
  ></path>
</svg>
