<svg
  xmlns="http://www.w3.org/2000/svg"
  width="24"
  height="24"
  viewBox="0 0 24 24"
  fill="#FFFFFF"
  aria-hidden="true"
>
  <path d="M17.293 1.293a1 1 0 000 1.415L18.586 4H7a5 5 0 00-5 5v4a1 1 0 102 0V9a3 3 0 013-3h11.586l-1.293 1.293a1 1 0 001.414 1.415L22.414 5l-3.707-3.707a1 1 0 00-1.414 0ZM13 15V8h-2.5a1 1 0 000 2h.5v5a1 1 0 002 0Zm8-5a1 1 0 00-1 1v4a3 3 0 01-3 3H5.414l1.293-1.292a1.001 1.001 0 00-1.414-1.415L1.586 19l3.707 3.707a1 1 0 101.414-1.413L5.414 20H17a5 5 0 005-5v-4a1 1 0 00-1-1Z"/>
</svg>
