<svg
  xmlns="http://www.w3.org/2000/svg"
  width="24"
  height="24"
  viewBox="0 0 24 24"
  fill="#FFFFFF"
  aria-hidden="true"
>
  <path d="M16.293 13.293a1 1 0 011.414 0L22.414 18l-4.707 4.707a1 1 0 01-1.414-1.413L18.586 19H17.21a7.001 7.001 0 01-5.824-3.117l-.186-.278 1.202-1.803.648.972A5.001 5.001 0 0017.21 17h1.375l-2.293-2.293a1 1 0 010-1.414Zm0-12a1 1 0 011.414 0L22.414 6l-4.707 4.707a1 1 0 01-1.414-1.414L18.586 7H17.21a5 5 0 00-4.16 2.227l-4.438 6.656A7 7 0 012.79 19H2a1 1 0 010-2h.79a5 5 0 004.16-2.226l4.437-6.656A7 7 0 0117.21 5h1.375l-2.293-2.292a1 1 0 010-1.415ZM3 10.001a2 2 0 110 4 2 2 0 010-4Zm-.21-5a7 7 0 015.823 3.117l.185.277-1.202 1.803-.647-.971A5 5 0 002.79 7H2a1 1 0 010-2h.79Z"/>
</svg>
